<svg xmlns="http://www.w3.org/2000/svg" xmlns:xlink="http://www.w3.org/1999/xlink" width="1546" height="1722" viewBox="0 0 1546 1722"><defs><style>.a{fill:none;stroke:#707070;}.b{clip-path:url(#a);}.c{fill:#303035;opacity:0.22;}.d{fill:#212121;opacity:0.78;}.e,.f{stroke:none;}.f{fill:#707070;}</style><clipPath id="a"><rect class="a" width="1546" height="1722" transform="translate(-411 -258)"/></clipPath></defs><g class="b" transform="translate(411 258)"><g transform="translate(143)"><g class="c" transform="translate(1872.4 228.919) rotate(120)"><path class="e" d="M 1396.7119140625 1918.65771484375 L 823.49560546875 1918.65771484375 C 801.0197143554688 1918.65771484375 778.5286254882812 1917.136352539062 756.6470947265625 1914.135986328125 C 735.2730102539062 1911.204833984375 713.99951171875 1906.797241210938 693.41796875 1901.034912109375 C 673.2736206054688 1895.39501953125 653.3525390625 1888.335083007812 634.2075805664062 1880.050903320312 C 615.4232177734375 1871.9228515625 596.9888305664062 1862.44482421875 579.4166870117188 1851.880126953125 C 544.9097290039062 1831.134033203125 513.041259765625 1805.85986328125 484.6966857910156 1776.759887695312 C 456.8244934082031 1748.144653320312 432.5238647460938 1716.007446289062 412.4701538085938 1681.240966796875 C 392.4164733886719 1646.474365234375 376.765380859375 1609.34814453125 365.9512329101562 1570.893798828125 C 354.953857421875 1531.787719726562 349.0327758789062 1491.546997070312 348.3521118164062 1451.289428710938 C 348.0055847167969 1430.788818359375 349.03125 1410.0859375 351.4008178710938 1389.756225585938 C 353.8158264160156 1369.035888671875 357.6790771484375 1348.2568359375 362.8834228515625 1327.995971679688 C 368.2008056640625 1307.294921875 375.0368957519531 1286.673095703125 383.2021179199219 1266.703735351562 C 391.5608215332031 1246.26025390625 401.50537109375 1226.029907226562 412.7590637207031 1206.574462890625 L 699.3673095703125 711.0835571289062 C 710.6053466796875 691.6548461914062 723.1654052734375 672.9720458984375 736.6981811523438 655.5540161132812 C 749.9177856445312 638.5390014648438 764.3629760742188 622.347900390625 779.632568359375 607.4305419921875 C 794.5780029296875 592.8294067382812 810.6392822265625 579.129638671875 827.3701782226562 566.7113647460938 C 843.7866821289062 554.526611328125 861.1949462890625 543.3174438476562 879.1112670898438 533.395751953125 C 914.2955932617188 513.91162109375 952.0760498046875 498.9659423828125 991.4031982421875 488.9742126464844 C 1030.076416015625 479.1487731933594 1070.01318359375 474.1668090820312 1110.103637695312 474.1668090820312 C 1150.194091796875 474.1668090820312 1190.130615234375 479.1487731933594 1228.803833007812 488.9742126464844 C 1268.131225585938 498.9659423828125 1305.91162109375 513.91162109375 1341.095825195312 533.395751953125 C 1359.012329101562 543.3174438476562 1376.420654296875 554.526611328125 1392.837158203125 566.7113647460938 C 1409.567993164062 579.129638671875 1425.629272460938 592.8294067382812 1440.57470703125 607.4305419921875 C 1455.84423828125 622.347900390625 1470.28955078125 638.5390014648438 1483.509033203125 655.5540161132812 C 1497.041870117188 672.9720458984375 1509.601684570312 691.6548461914062 1520.839965820312 711.0835571289062 L 1807.447998046875 1206.574462890625 C 1818.70166015625 1226.029907226562 1828.646240234375 1246.26025390625 1837.0048828125 1266.703735351562 C 1845.170166015625 1286.673095703125 1852.006225585938 1307.294921875 1857.323608398438 1327.995971679688 C 1862.527954101562 1348.257080078125 1866.391479492188 1369.0361328125 1868.806518554688 1389.756225585938 C 1871.176025390625 1410.0859375 1872.20166015625 1430.788818359375 1871.855102539062 1451.289428710938 C 1871.174560546875 1491.546997070312 1865.25341796875 1531.787719726562 1854.255981445312 1570.893798828125 C 1843.44189453125 1609.348388671875 1827.790771484375 1646.474365234375 1807.737060546875 1681.240966796875 C 1787.683471679688 1716.007690429688 1763.382934570312 1748.144897460938 1735.510620117188 1776.759887695312 C 1707.166015625 1805.85986328125 1675.297729492188 1831.134033203125 1640.790771484375 1851.880126953125 C 1623.218627929688 1862.44482421875 1604.784301757812 1871.9228515625 1586 1880.051147460938 C 1566.85498046875 1888.335083007812 1546.93359375 1895.39501953125 1526.78955078125 1901.034912109375 C 1506.2080078125 1906.797241210938 1484.934448242188 1911.204833984375 1463.560424804688 1914.135986328125 C 1441.678833007812 1917.136352539062 1419.187744140625 1918.65771484375 1396.7119140625 1918.65771484375 Z"/><path class="f" d="M 1110.103393554688 474.6668701171875 C 1070.054565429688 474.6668701171875 1030.159301757812 479.6436767578125 991.5262451171875 489.4591064453125 C 952.2406005859375 499.440185546875 914.5001220703125 514.3697509765625 879.3533935546875 533.833251953125 C 861.456298828125 543.7442626953125 844.066650390625 554.9412841796875 827.66796875 567.113037109375 C 810.9552001953125 579.517822265625 794.9112548828125 593.2030029296875 779.981689453125 607.7882080078125 C 764.7283935546875 622.68994140625 750.298583984375 638.8638916015625 737.0927734375 655.86083984375 C 723.5738525390625 673.260986328125 711.0267333984375 691.9246826171875 699.7999267578125 711.3338623046875 L 413.19189453125 1206.824462890625 C 401.949462890625 1226.260620117188 392.01513671875 1246.470336914062 383.6649169921875 1266.892822265625 C 375.5084228515625 1286.84130859375 368.6795654296875 1307.441284179688 363.3677978515625 1328.120361328125 C 358.1690673828125 1348.359497070312 354.3096923828125 1369.1162109375 351.8973388671875 1389.814086914062 C 349.5303955078125 1410.1220703125 348.505859375 1430.802490234375 348.8519287109375 1451.28125 C 349.5318603515625 1491.495849609375 355.4468994140625 1531.69384765625 366.4324951171875 1570.758666992188 C 377.2353515625 1609.172973632812 392.870361328125 1646.2607421875 412.9034423828125 1680.991455078125 C 432.936279296875 1715.721923828125 457.211669921875 1747.825805664062 485.054931640625 1776.411254882812 C 513.3695068359375 1805.480346679688 545.2041015625 1830.727783203125 579.674072265625 1851.45166015625 C 597.2275390625 1862.005126953125 615.641845703125 1871.473022460938 634.406005859375 1879.59228515625 C 653.5303955078125 1887.867309570312 673.429931640625 1894.919677734375 693.552490234375 1900.553466796875 C 714.1123046875 1906.309814453125 735.3631591796875 1910.712768554688 756.7149658203125 1913.640625 C 778.5738525390625 1916.637939453125 801.0421142578125 1918.15771484375 823.495361328125 1918.15771484375 L 1396.711669921875 1918.15771484375 C 1419.164916992188 1918.15771484375 1441.633178710938 1916.637939453125 1463.4921875 1913.640625 C 1484.843872070312 1910.712768554688 1506.0947265625 1906.309814453125 1526.654541015625 1900.553466796875 C 1546.777099609375 1894.919677734375 1566.676879882812 1887.867309570312 1585.801025390625 1879.59228515625 C 1604.565185546875 1871.473022460938 1622.979736328125 1862.005126953125 1640.532958984375 1851.45166015625 C 1675.003173828125 1830.7275390625 1706.837524414062 1805.480346679688 1735.15234375 1776.4111328125 C 1762.99560546875 1747.82568359375 1787.27099609375 1715.721923828125 1807.303833007812 1680.9912109375 C 1827.3369140625 1646.260620117188 1842.971923828125 1609.172973632812 1853.774658203125 1570.758422851562 C 1864.760375976562 1531.693603515625 1870.675170898438 1491.49560546875 1871.355224609375 1451.281005859375 C 1871.701416015625 1430.802490234375 1870.676635742188 1410.121826171875 1868.309692382812 1389.814086914062 C 1865.897338867188 1369.1162109375 1862.038208007812 1348.359497070312 1856.83935546875 1328.1201171875 C 1851.52783203125 1307.441284179688 1844.698608398438 1286.84130859375 1836.542114257812 1266.892822265625 C 1828.19189453125 1246.470336914062 1818.257568359375 1226.260620117188 1807.01513671875 1206.824462890625 L 1520.407104492188 711.3338623046875 C 1509.180419921875 691.9246826171875 1496.633178710938 673.260986328125 1483.1142578125 655.86083984375 C 1469.908447265625 638.8638916015625 1455.478637695312 622.68994140625 1440.225341796875 607.7882080078125 C 1425.2958984375 593.2030029296875 1409.251953125 579.517822265625 1392.5390625 567.113037109375 C 1376.14013671875 554.9412841796875 1358.750732421875 543.7442626953125 1340.853637695312 533.833251953125 C 1305.706909179688 514.3697509765625 1267.966552734375 499.440185546875 1228.680786132812 489.4591064453125 C 1190.047607421875 479.6436767578125 1150.15234375 474.6668701171875 1110.103393554688 474.6668701171875 M 1110.103515625 473.6668701171875 C 1269.9599609375 473.6668701171875 1429.816162109375 552.7222900390625 1521.272705078125 710.833251953125 L 1807.880859375 1206.323852539062 C 1991.05126953125 1522.990600585938 1762.538208007812 1919.15771484375 1396.711669921875 1919.15771484375 L 823.495361328125 1919.15771484375 C 457.6688232421875 1919.15771484375 229.156005859375 1522.990600585938 412.3262939453125 1206.323852539062 L 698.934326171875 710.833251953125 C 790.390869140625 552.7222900390625 950.2471923828125 473.6668701171875 1110.103515625 473.6668701171875 Z"/></g><g class="d" transform="translate(1461.208 -412.711) rotate(90)"><path class="e" d="M 1396.7119140625 1918.65771484375 L 823.49560546875 1918.65771484375 C 801.0197143554688 1918.65771484375 778.5286254882812 1917.136352539062 756.6470947265625 1914.135986328125 C 735.2730102539062 1911.204833984375 713.99951171875 1906.797241210938 693.41796875 1901.034912109375 C 673.2736206054688 1895.39501953125 653.3525390625 1888.335083007812 634.2075805664062 1880.050903320312 C 615.4232177734375 1871.9228515625 596.9888305664062 1862.44482421875 579.4166870117188 1851.880126953125 C 544.9097290039062 1831.134033203125 513.041259765625 1805.85986328125 484.6966857910156 1776.759887695312 C 456.8244934082031 1748.144653320312 432.5238647460938 1716.007446289062 412.4701538085938 1681.240966796875 C 392.4164733886719 1646.474365234375 376.765380859375 1609.34814453125 365.9512329101562 1570.893798828125 C 354.953857421875 1531.787719726562 349.0327758789062 1491.546997070312 348.3521118164062 1451.289428710938 C 348.0055847167969 1430.788818359375 349.03125 1410.0859375 351.4008178710938 1389.756225585938 C 353.8158264160156 1369.035888671875 357.6790771484375 1348.2568359375 362.8834228515625 1327.995971679688 C 368.2008056640625 1307.294921875 375.0368957519531 1286.673095703125 383.2021179199219 1266.703735351562 C 391.5608215332031 1246.26025390625 401.50537109375 1226.029907226562 412.7590637207031 1206.574462890625 L 699.3673095703125 711.0835571289062 C 710.6053466796875 691.6548461914062 723.1654052734375 672.9720458984375 736.6981811523438 655.5540161132812 C 749.9177856445312 638.5390014648438 764.3629760742188 622.347900390625 779.632568359375 607.4305419921875 C 794.5780029296875 592.8294067382812 810.6392822265625 579.129638671875 827.3701782226562 566.7113647460938 C 843.7866821289062 554.526611328125 861.1949462890625 543.3174438476562 879.1112670898438 533.395751953125 C 914.2955932617188 513.91162109375 952.0760498046875 498.9659423828125 991.4031982421875 488.9742126464844 C 1030.076416015625 479.1487731933594 1070.01318359375 474.1668090820312 1110.103637695312 474.1668090820312 C 1150.194091796875 474.1668090820312 1190.130615234375 479.1487731933594 1228.803833007812 488.9742126464844 C 1268.131225585938 498.9659423828125 1305.91162109375 513.91162109375 1341.095825195312 533.395751953125 C 1359.012329101562 543.3174438476562 1376.420654296875 554.526611328125 1392.837158203125 566.7113647460938 C 1409.567993164062 579.129638671875 1425.629272460938 592.8294067382812 1440.57470703125 607.4305419921875 C 1455.84423828125 622.347900390625 1470.28955078125 638.5390014648438 1483.509033203125 655.5540161132812 C 1497.041870117188 672.9720458984375 1509.601684570312 691.6548461914062 1520.839965820312 711.0835571289062 L 1807.447998046875 1206.574462890625 C 1818.70166015625 1226.029907226562 1828.646240234375 1246.26025390625 1837.0048828125 1266.703735351562 C 1845.170166015625 1286.673095703125 1852.006225585938 1307.294921875 1857.323608398438 1327.995971679688 C 1862.527954101562 1348.257080078125 1866.391479492188 1369.0361328125 1868.806518554688 1389.756225585938 C 1871.176025390625 1410.0859375 1872.20166015625 1430.788818359375 1871.855102539062 1451.289428710938 C 1871.174560546875 1491.546997070312 1865.25341796875 1531.787719726562 1854.255981445312 1570.893798828125 C 1843.44189453125 1609.348388671875 1827.790771484375 1646.474365234375 1807.737060546875 1681.240966796875 C 1787.683471679688 1716.007690429688 1763.382934570312 1748.144897460938 1735.510620117188 1776.759887695312 C 1707.166015625 1805.85986328125 1675.297729492188 1831.134033203125 1640.790771484375 1851.880126953125 C 1623.218627929688 1862.44482421875 1604.784301757812 1871.9228515625 1586 1880.051147460938 C 1566.85498046875 1888.335083007812 1546.93359375 1895.39501953125 1526.78955078125 1901.034912109375 C 1506.2080078125 1906.797241210938 1484.934448242188 1911.204833984375 1463.560424804688 1914.135986328125 C 1441.678833007812 1917.136352539062 1419.187744140625 1918.65771484375 1396.7119140625 1918.65771484375 Z"/><path class="f" d="M 1110.103393554688 474.6668701171875 C 1070.054565429688 474.6668701171875 1030.159301757812 479.6436767578125 991.5262451171875 489.4591064453125 C 952.2406005859375 499.440185546875 914.5001220703125 514.3697509765625 879.3533935546875 533.833251953125 C 861.456298828125 543.7442626953125 844.066650390625 554.9412841796875 827.66796875 567.113037109375 C 810.9552001953125 579.517822265625 794.9112548828125 593.2030029296875 779.981689453125 607.7882080078125 C 764.7283935546875 622.68994140625 750.298583984375 638.8638916015625 737.0927734375 655.86083984375 C 723.5738525390625 673.260986328125 711.0267333984375 691.9246826171875 699.7999267578125 711.3338623046875 L 413.19189453125 1206.824462890625 C 401.949462890625 1226.260620117188 392.01513671875 1246.470336914062 383.6649169921875 1266.892822265625 C 375.5084228515625 1286.84130859375 368.6795654296875 1307.441284179688 363.3677978515625 1328.120361328125 C 358.1690673828125 1348.359497070312 354.3096923828125 1369.1162109375 351.8973388671875 1389.814086914062 C 349.5303955078125 1410.1220703125 348.505859375 1430.802490234375 348.8519287109375 1451.28125 C 349.5318603515625 1491.495849609375 355.4468994140625 1531.69384765625 366.4324951171875 1570.758666992188 C 377.2353515625 1609.172973632812 392.870361328125 1646.2607421875 412.9034423828125 1680.991455078125 C 432.936279296875 1715.721923828125 457.211669921875 1747.825805664062 485.054931640625 1776.411254882812 C 513.3695068359375 1805.480346679688 545.2041015625 1830.727783203125 579.674072265625 1851.45166015625 C 597.2275390625 1862.005126953125 615.641845703125 1871.473022460938 634.406005859375 1879.59228515625 C 653.5303955078125 1887.867309570312 673.429931640625 1894.919677734375 693.552490234375 1900.553466796875 C 714.1123046875 1906.309814453125 735.3631591796875 1910.712768554688 756.7149658203125 1913.640625 C 778.5738525390625 1916.637939453125 801.0421142578125 1918.15771484375 823.495361328125 1918.15771484375 L 1396.711669921875 1918.15771484375 C 1419.164916992188 1918.15771484375 1441.633178710938 1916.637939453125 1463.4921875 1913.640625 C 1484.843872070312 1910.712768554688 1506.0947265625 1906.309814453125 1526.654541015625 1900.553466796875 C 1546.777099609375 1894.919677734375 1566.676879882812 1887.867309570312 1585.801025390625 1879.59228515625 C 1604.565185546875 1871.473022460938 1622.979736328125 1862.005126953125 1640.532958984375 1851.45166015625 C 1675.003173828125 1830.7275390625 1706.837524414062 1805.480346679688 1735.15234375 1776.4111328125 C 1762.99560546875 1747.82568359375 1787.27099609375 1715.721923828125 1807.303833007812 1680.9912109375 C 1827.3369140625 1646.260620117188 1842.971923828125 1609.172973632812 1853.774658203125 1570.758422851562 C 1864.760375976562 1531.693603515625 1870.675170898438 1491.49560546875 1871.355224609375 1451.281005859375 C 1871.701416015625 1430.802490234375 1870.676635742188 1410.121826171875 1868.309692382812 1389.814086914062 C 1865.897338867188 1369.1162109375 1862.038208007812 1348.359497070312 1856.83935546875 1328.1201171875 C 1851.52783203125 1307.441284179688 1844.698608398438 1286.84130859375 1836.542114257812 1266.892822265625 C 1828.19189453125 1246.470336914062 1818.257568359375 1226.260620117188 1807.01513671875 1206.824462890625 L 1520.407104492188 711.3338623046875 C 1509.180419921875 691.9246826171875 1496.633178710938 673.260986328125 1483.1142578125 655.86083984375 C 1469.908447265625 638.8638916015625 1455.478637695312 622.68994140625 1440.225341796875 607.7882080078125 C 1425.2958984375 593.2030029296875 1409.251953125 579.517822265625 1392.5390625 567.113037109375 C 1376.14013671875 554.9412841796875 1358.750732421875 543.7442626953125 1340.853637695312 533.833251953125 C 1305.706909179688 514.3697509765625 1267.966552734375 499.440185546875 1228.680786132812 489.4591064453125 C 1190.047607421875 479.6436767578125 1150.15234375 474.6668701171875 1110.103393554688 474.6668701171875 M 1110.103515625 473.6668701171875 C 1269.9599609375 473.6668701171875 1429.816162109375 552.7222900390625 1521.272705078125 710.833251953125 L 1807.880859375 1206.323852539062 C 1991.05126953125 1522.990600585938 1762.538208007812 1919.15771484375 1396.711669921875 1919.15771484375 L 823.495361328125 1919.15771484375 C 457.6688232421875 1919.15771484375 229.156005859375 1522.990600585938 412.3262939453125 1206.323852539062 L 698.934326171875 710.833251953125 C 790.390869140625 552.7222900390625 950.2471923828125 473.6668701171875 1110.103515625 473.6668701171875 Z"/></g></g></g></svg>